<?xml version="1.0" standalone="no"?>
<!DOCTYPE svg PUBLIC "-//W3C//DTD SVG 20010904//EN"
 "http://www.w3.org/TR/2001/REC-SVG-20010904/DTD/svg10.dtd">
<svg version="1.0" xmlns="http://www.w3.org/2000/svg"
 width="1280.000000pt" height="1200.000000pt" viewBox="0 0 1280.000000 1200.000000"
 preserveAspectRatio="xMidYMid meet">
<metadata>
Created by potrace 1.15, written by Peter Selinger 2001-2017
</metadata>
<g transform="translate(0.000000,1200.000000) scale(0.100000,-0.100000)"
fill="#000000" stroke="none">
<path d="M6484 11982 c-18 -2 -42 -14 -56 -30 -29 -31 -155 -246 -324 -554
-112 -204 -120 -215 -129 -190 -29 78 -72 106 -192 123 -199 28 -294 -35 -322
-211 -7 -38 -11 -250 -11 -509 l0 -444 -134 -251 c-73 -138 -158 -295 -187
-349 l-54 -97 -5 822 c-6 870 -7 891 -53 960 -29 44 -76 65 -171 79 -84 11
-165 5 -207 -17 -41 -21 -87 -79 -106 -136 -16 -49 -17 -143 -19 -1369 l-2
-1316 -37 -57 c-26 -41 -41 -56 -53 -52 -52 16 -226 47 -298 52 l-83 7 -3
1356 c-3 1282 -4 1359 -21 1403 -38 97 -109 131 -272 132 -113 0 -142 -10
-193 -68 -16 -19 -38 -61 -49 -93 -17 -55 -18 -131 -16 -1751 l2 -1694 -93
-171 c-51 -95 -117 -217 -146 -272 -29 -55 -88 -165 -130 -245 -42 -80 -112
-212 -155 -295 -43 -82 -90 -172 -105 -200 -15 -27 -148 -282 -295 -565 -147
-283 -329 -634 -405 -780 -138 -266 -530 -1026 -727 -1410 -58 -113 -146 -283
-195 -377 -49 -95 -87 -173 -84 -173 2 0 32 53 66 118 200 378 363 682 365
682 2 0 -148 -303 -332 -672 -185 -370 -368 -740 -408 -823 -40 -82 -146 -298
-235 -480 -89 -181 -190 -388 -225 -460 -35 -71 -124 -255 -198 -408 -75 -152
-137 -285 -138 -295 -4 -23 10 -62 22 -62 5 0 9 6 9 13 0 8 3 7 9 -3 6 -8 7
-18 5 -22 -3 -4 0 -8 6 -8 6 0 8 -4 5 -10 -3 -5 -1 -10 5 -10 6 0 8 -4 5 -10
-3 -5 -1 -10 5 -10 6 0 8 -4 5 -10 -3 -5 -1 -10 5 -10 6 0 8 -5 5 -10 -3 -6
-1 -10 4 -10 6 0 11 -7 11 -15 0 -8 5 -15 11 -15 5 0 7 -4 4 -10 -3 -5 -1 -10
5 -10 6 0 8 -4 5 -10 -3 -5 -1 -10 5 -10 6 0 8 -5 5 -10 -3 -6 1 -13 9 -16 9
-3 13 -10 10 -15 -3 -5 0 -9 5 -9 6 0 11 -7 11 -15 0 -8 5 -15 11 -15 5 0 7
-5 4 -10 -3 -6 1 -13 9 -16 9 -3 14 -10 11 -14 -3 -4 2 -11 11 -14 8 -3 12
-10 9 -16 -3 -6 1 -13 9 -16 9 -3 13 -10 10 -15 -3 -5 2 -12 10 -15 9 -3 16
-16 16 -29 0 -26 24 -50 40 -40 5 3 10 1 10 -5 0 -23 106 -122 173 -161 226
-133 543 -171 848 -103 63 14 66 16 88 62 13 26 119 227 236 447 569 1071
1048 1989 1765 3381 l47 92 6 -247 c10 -379 8 -1272 -6 -2281 -14 -1050 -14
-1155 1 -1230 38 -198 128 -290 285 -290 156 0 256 97 305 295 17 71 18 432 2
1235 -9 493 -19 1114 -41 2770 l-11 815 235 475 235 475 6 -95 c3 -52 11 -795
17 -1650 9 -1254 9 -1759 -2 -2610 -18 -1380 -18 -1365 10 -1465 48 -172 127
-245 264 -245 84 0 132 17 189 68 50 46 88 109 115 191 23 74 26 264 14 1001
-34 2079 -47 3038 -62 4691 l-12 1246 37 87 c35 81 37 95 39 197 2 85 0 112
-11 118 -8 5 -16 33 -19 69 -4 37 -10 62 -17 62 -28 0 -36 68 -36 320 l0 253
188 369 187 368 7 -528 c3 -290 11 -972 18 -1517 6 -544 15 -1345 20 -1780 13
-1089 12 -3332 -1 -4137 -12 -704 -9 -771 31 -885 24 -67 61 -116 119 -158 37
-26 53 -30 120 -33 63 -3 87 0 129 18 116 50 189 180 207 370 4 36 2 355 -4
710 -47 2798 -76 5324 -87 7671 l-6 1346 137 259 c191 360 376 699 525 964
141 249 155 282 145 339 -21 126 -187 246 -321 233z"/>
<path d="M7305 2404 c-302 -45 -524 -152 -720 -349 -188 -187 -298 -418 -324
-678 -47 -471 215 -920 664 -1137 162 -78 268 -102 550 -121 344 -23 755 10
755 60 0 6 -16 17 -36 26 -40 17 -195 46 -206 38 -5 -2 -8 -2 -8 1 0 3 46 35
102 72 115 76 235 186 309 283 65 86 163 285 188 384 66 257 42 522 -70 756
-154 325 -428 545 -794 637 -77 20 -132 26 -240 29 -77 2 -153 1 -170 -1z"/>
</g>
</svg>
